<?xml version="1.0" encoding="UTF-8"?>
<!DOCTYPE svg PUBLIC "-//W3C//DTD SVG 1.1//EN" "http://www.w3.org/Graphics/SVG/1.1/DTD/svg11.dtd">
<svg xmlns="http://www.w3.org/2000/svg" version="1.1" width="1024px" height="1024px" style="shape-rendering:geometricPrecision; text-rendering:geometricPrecision; image-rendering:optimizeQuality; fill-rule:evenodd; clip-rule:evenodd" xmlns:xlink="http://www.w3.org/1999/xlink">
<g><path style="opacity:1" fill="#fefdfd" d="M -0.5,-0.5 C 340.833,-0.5 682.167,-0.5 1023.5,-0.5C 1023.5,340.833 1023.5,682.167 1023.5,1023.5C 682.167,1023.5 340.833,1023.5 -0.5,1023.5C -0.5,682.167 -0.5,340.833 -0.5,-0.5 Z"/></g>
<g><path style="opacity:1" fill="#fc3a7f" d="M 852.5,413.5 C 851.501,411.682 850.168,410.015 848.5,408.5C 847.914,408.709 847.414,409.043 847,409.5C 846.882,406.629 846.216,403.962 845,401.5C 842.711,403.427 840.544,404.761 838.5,405.5C 835.392,402.133 832.392,398.633 829.5,395C 825.5,394 821.5,393 817.5,392C 815.028,390.202 813.361,387.868 812.5,385C 809.129,384.256 805.963,384.756 803,386.5C 802.833,387.167 802.667,387.833 802.5,388.5C 804.391,390.117 805.724,392.117 806.5,394.5C 806.333,395.5 806.167,396.5 806,397.5C 802.713,398.116 799.879,399.616 797.5,402C 792.224,402.074 787.224,402.74 782.5,404C 781.051,405.117 779.384,405.784 777.5,406C 776.167,406.667 776.167,407.333 777.5,408C 776.541,409.464 775.208,410.297 773.5,410.5C 771.481,409.86 769.647,409.86 768,410.5C 766.687,409.427 765.187,408.76 763.5,408.5C 758.495,409.766 753.495,409.766 748.5,408.5C 742.148,407.921 735.815,407.255 729.5,406.5C 728.522,406.977 727.689,407.643 727,408.5C 726.211,411.834 725.044,415.001 723.5,418C 723.833,418.333 724.167,418.667 724.5,419C 723.376,419.249 722.376,419.749 721.5,420.5C 722.326,421.451 722.492,422.451 722,423.5C 721.167,422.5 720.333,421.5 719.5,420.5C 718.289,421.274 718.289,422.107 719.5,423C 718.875,425.8 718.208,428.634 717.5,431.5C 713.44,433.366 709.94,436.033 707,439.5C 706.251,443.111 704.751,446.277 702.5,449C 704.668,453.7 706.668,458.533 708.5,463.5C 707.652,465.409 707.318,467.409 707.5,469.5C 705.418,469.528 703.584,468.861 702,467.5C 701.667,468.167 701.333,468.833 701,469.5C 700.405,465.918 699.071,465.584 697,468.5C 696.536,474.175 695.869,474.508 695,469.5C 694.691,470.766 694.191,471.933 693.5,473C 693.833,473.333 694.167,473.667 694.5,474C 693.891,476.058 692.891,476.891 691.5,476.5C 692.685,477.853 694.019,479.02 695.5,480C 694.833,480.333 694.167,480.667 693.5,481C 695.968,482.588 696.134,484.422 694,486.5C 692.989,485.663 691.822,485.33 690.5,485.5C 690.657,484.127 690.49,482.793 690,481.5C 689.333,483.5 688.667,485.5 688,487.5C 687.667,485.167 687.333,482.833 687,480.5C 686.658,482.619 685.825,482.953 684.5,481.5C 692.27,463.321 696.603,444.321 697.5,424.5C 695.653,381.944 675.653,351.444 637.5,333C 601.242,320.402 567.909,325.735 537.5,349C 527.982,357.017 519.316,365.851 511.5,375.5C 492.471,349.484 467.138,333.317 435.5,327C 386.267,323.023 351.767,343.523 332,388.5C 325.152,408.124 323.819,428.124 328,448.5C 334.773,476.378 347.106,501.378 365,523.5C 386.806,550.142 411.306,573.809 438.5,594.5C 436.683,595.219 436.016,596.219 436.5,597.5C 434.123,596.415 431.789,595.248 429.5,594C 422.235,587.861 415.568,581.861 409.5,576C 411.709,575.043 411.543,573.876 409,572.5C 407.771,574.947 406.271,575.113 404.5,573C 400.833,569.333 397.167,565.667 393.5,562C 395.993,560.417 395.826,558.917 393,557.5C 391.771,559.947 390.271,560.113 388.5,558C 385.895,554.306 382.728,551.14 379,548.5C 378.349,546.765 378.515,545.098 379.5,543.5C 378.52,542.019 377.353,540.685 376,539.5C 375.667,540.5 375.333,541.5 375,542.5C 372.664,541.478 370.664,539.478 369,536.5C 365.872,535.796 362.706,535.296 359.5,535C 359.833,534.667 360.167,534.333 360.5,534C 359.5,533.167 358.5,532.333 357.5,531.5C 360.083,530.536 360.583,529.202 359,527.5C 356.331,529.709 353.498,529.709 350.5,527.5C 350.833,526.833 351.167,526.167 351.5,525.5C 348.114,522.117 345.114,518.451 342.5,514.5C 342.709,513.914 343.043,513.414 343.5,513C 340.541,512.488 337.875,510.822 335.5,508C 336.624,507.751 337.624,507.251 338.5,506.5C 337.509,505.335 336.509,504.168 335.5,503C 336.573,501.584 336.573,500.25 335.5,499C 337.167,498 338.5,496.667 339.5,495C 338.908,492.264 337.741,489.43 336,486.5C 334.169,488.855 332.003,490.188 329.5,490.5C 328.575,488.789 327.575,486.622 326.5,484C 324.709,483.585 323.376,482.585 322.5,481C 320.888,480.28 319.388,480.446 318,481.5C 315.372,480.543 313.872,478.709 313.5,476C 314.114,474.463 314.114,473.13 313.5,472C 315.936,469.681 316.103,467.181 314,464.5C 311.404,460.61 307.904,457.777 303.5,456C 302.799,451.916 300.465,450.583 296.5,452C 295.788,453.425 295.621,454.925 296,456.5C 292.823,456.701 289.823,456.367 287,455.5C 284.595,456.274 282.095,456.774 279.5,457C 281.481,457.605 281.815,458.605 280.5,460C 282.001,461.252 283.668,462.252 285.5,463C 280.58,465.641 280.414,468.474 285,471.5C 285.96,473.98 286.793,476.48 287.5,479C 283.209,478.792 279.542,480.125 276.5,483C 273.211,483.882 269.877,484.548 266.5,485C 266.833,485.333 267.167,485.667 267.5,486C 264.274,487.199 260.941,487.699 257.5,487.5C 255.568,483.231 254.402,478.898 254,474.5C 250.234,472.509 246.4,471.509 242.5,471.5C 245.066,470.194 246.066,468.361 245.5,466C 248.003,463.262 250.67,460.762 253.5,458.5C 249.017,454.428 244.351,450.594 239.5,447C 239.833,446.667 240.167,446.333 240.5,446C 239.833,444 239.167,442 238.5,440C 235.21,439.747 232.21,438.747 229.5,437C 230.406,435.301 230.739,433.467 230.5,431.5C 234.237,430.921 237.904,430.921 241.5,431.5C 244.702,430.873 247.869,430.206 251,429.5C 251.333,429.833 251.667,430.167 252,430.5C 254.129,428.091 253.796,426.091 251,424.5C 247.614,423.913 244.28,423.246 241,422.5C 240.667,422.833 240.333,423.167 240,423.5C 238.881,420.709 236.881,419.043 234,418.5C 230.774,418.995 228.607,420.161 227.5,422C 228.694,425.4 228.694,428.9 227.5,432.5C 226.268,431.855 224.935,431.689 223.5,432C 222.62,430.644 222.286,429.144 222.5,427.5C 219.612,427.22 218.112,428.553 218,431.5C 217.861,435.525 218.027,439.358 218.5,443C 221.257,445.712 224.591,447.379 228.5,448C 230.006,449.881 231.339,452.381 232.5,455.5C 230.815,457.017 229.315,458.684 228,460.5C 226.493,459.465 224.993,459.632 223.5,461C 224.872,461.402 226.205,461.902 227.5,462.5C 229.149,461.352 230.649,460.019 232,458.5C 233.547,460.887 235.713,462.22 238.5,462.5C 238.807,465.899 239.807,469.066 241.5,472C 238.521,472.007 235.521,471.673 232.5,471C 231.181,468.715 229.681,466.548 228,464.5C 227.147,466.125 226.147,466.458 225,465.5C 223.708,469.885 223.541,474.551 224.5,479.5C 222.275,481.535 219.942,483.035 217.5,484C 218.076,485.714 219.243,486.881 221,487.5C 221.003,490.716 222.169,493.383 224.5,495.5C 223.943,497.235 223.61,498.902 223.5,500.5C 221.776,499.339 220.11,499.505 218.5,501C 218.957,501.414 219.291,501.914 219.5,502.5C 216.973,503.214 214.473,503.88 212,504.5C 207.292,499.435 202.458,494.601 197.5,490C 194.443,487.542 192.11,488.042 190.5,491.5C 191.167,494.833 193.167,496.167 196.5,495.5C 197.008,498.176 197.175,500.843 197,503.5C 195.989,504.337 194.822,504.67 193.5,504.5C 193.065,509.304 194.565,510.97 198,509.5C 199.698,511.266 201.031,513.266 202,515.5C 203.707,514.862 205.54,514.862 207.5,515.5C 207.33,516.822 207.663,517.989 208.5,519C 205.882,522.561 202.382,524.727 198,525.5C 197.163,528.365 196.33,531.198 195.5,534C 195.833,534.333 196.167,534.667 196.5,535C 195.192,535.824 193.692,536.324 192,536.5C 191.08,539.101 190.413,541.768 190,544.5C 189,545.167 188,545.833 187,546.5C 186,549.5 185,552.5 184,555.5C 183.51,554.207 183.343,552.873 183.5,551.5C 180.959,551.85 178.626,551.85 176.5,551.5C 151.233,475.64 160.733,404.306 205,337.5C 229.098,303.398 258.932,275.564 294.5,254C 370.708,209.368 453.041,190.368 541.5,197C 606.395,201.053 667.062,219.053 723.5,251C 770.1,278.266 806.6,315.433 833,362.5C 841.576,378.732 848.076,395.732 852.5,413.5 Z"/></g>
<g><path style="opacity:1" fill="#fefdfd" d="M 684.5,481.5 C 668.674,511.855 648.007,538.689 622.5,562C 588.842,592.656 552.509,619.656 513.5,643C 510.983,643.257 508.65,642.59 506.5,641C 488.966,629.738 471.633,618.238 454.5,606.5C 453.71,605.599 452.71,604.932 451.5,604.5C 447.386,600.936 443.052,597.603 438.5,594.5C 411.306,573.809 386.806,550.142 365,523.5C 347.106,501.378 334.773,476.378 328,448.5C 323.819,428.124 325.152,408.124 332,388.5C 351.767,343.523 386.267,323.023 435.5,327C 467.138,333.317 492.471,349.484 511.5,375.5C 519.316,365.851 527.982,357.017 537.5,349C 567.909,325.735 601.242,320.402 637.5,333C 675.653,351.444 695.653,381.944 697.5,424.5C 696.603,444.321 692.27,463.321 684.5,481.5 Z"/></g>
<g><path style="opacity:1" fill="#fc377d" d="M 852.5,413.5 C 853.768,415.905 854.435,418.572 854.5,421.5C 852.592,424.802 852.258,428.302 853.5,432C 853.167,432.167 852.833,432.333 852.5,432.5C 851.895,429.696 851.062,427.029 850,424.5C 849.333,425.833 848.667,425.833 848,424.5C 847.51,425.793 847.343,427.127 847.5,428.5C 843.025,426.935 839.192,427.935 836,431.5C 835.667,431.167 835.333,430.833 835,430.5C 833.352,431.717 831.519,432.55 829.5,433C 823.511,438.989 817.511,444.989 811.5,451C 812.061,452.676 813.061,454.009 814.5,455C 812.608,455.973 810.608,456.64 808.5,457C 811.246,459.419 814.246,461.419 817.5,463C 815.926,464.826 815.093,466.993 815,469.5C 811.901,471.169 808.901,472.169 806,472.5C 805.033,471.322 804.533,469.989 804.5,468.5C 803.372,467.738 802.205,467.071 801,466.5C 800.505,468.473 800.338,470.473 800.5,472.5C 795.884,473.109 791.217,472.609 786.5,471C 787.711,469.887 787.711,468.72 786.5,467.5C 789.908,462.826 793.408,458.159 797,453.5C 796.836,446.473 799.503,440.473 805,435.5C 805.494,433.866 805.66,432.199 805.5,430.5C 811.627,431.275 815.627,428.775 817.5,423C 819.676,422.837 821.509,422.004 823,420.5C 823.333,421.167 823.667,421.833 824,422.5C 825.73,422.491 827.563,422.158 829.5,421.5C 830.711,420.28 830.711,419.113 829.5,418C 831.211,416.565 832.378,414.731 833,412.5C 833.157,410.005 833.324,407.672 833.5,405.5C 831.203,404.102 829.037,402.436 827,400.5C 826.383,399.551 826.549,398.718 827.5,398C 825.134,396.767 822.634,395.934 820,395.5C 816.135,397.851 811.968,399.518 807.5,400.5C 803.658,404.21 799.825,407.877 796,411.5C 795.833,412 795.667,412.5 795.5,413C 799.518,417.5 799.518,421.166 795.5,424C 794.552,424.483 793.552,424.649 792.5,424.5C 792.254,428.151 792.254,431.651 792.5,435C 791.711,437.267 791.044,439.6 790.5,442C 786.454,445.335 781.954,448.501 777,451.5C 774.536,449.58 772.036,447.747 769.5,446C 770.167,445.667 770.833,445.333 771.5,445C 769.59,444.592 768.59,443.425 768.5,441.5C 768.662,439.159 769.662,437.325 771.5,436C 769.875,435.147 769.542,434.147 770.5,433C 767.183,432.502 763.85,432.335 760.5,432.5C 760.85,436.546 760.183,440.38 758.5,444C 756.567,444.251 754.734,444.751 753,445.5C 751.326,444.324 749.826,442.99 748.5,441.5C 746.264,442.164 744.264,443.331 742.5,445C 744.027,446.368 745.527,446.868 747,446.5C 747.494,448.134 747.66,449.801 747.5,451.5C 742.545,451.215 738.878,448.882 736.5,444.5C 735.833,445.167 735.167,445.833 734.5,446.5C 732.02,444.448 730.686,442.115 730.5,439.5C 732.81,437.101 735.31,435.767 738,435.5C 738.333,434.167 738.667,432.833 739,431.5C 743.401,428.427 746.235,424.26 747.5,419C 750.708,417.164 752.208,418.331 752,422.5C 755.693,423.785 758.86,422.951 761.5,420C 760.359,419.259 760.359,418.425 761.5,417.5C 759.234,416.568 757.234,415.234 755.5,413.5C 754.914,413.709 754.414,414.043 754,414.5C 751.597,412.935 749.764,410.935 748.5,408.5C 753.495,409.766 758.495,409.766 763.5,408.5C 765.187,408.76 766.687,409.427 768,410.5C 769.647,409.86 771.481,409.86 773.5,410.5C 775.208,410.297 776.541,409.464 777.5,408C 776.167,407.333 776.167,406.667 777.5,406C 779.384,405.784 781.051,405.117 782.5,404C 787.224,402.74 792.224,402.074 797.5,402C 799.879,399.616 802.713,398.116 806,397.5C 806.167,396.5 806.333,395.5 806.5,394.5C 805.724,392.117 804.391,390.117 802.5,388.5C 802.667,387.833 802.833,387.167 803,386.5C 805.963,384.756 809.129,384.256 812.5,385C 813.361,387.868 815.028,390.202 817.5,392C 821.5,393 825.5,394 829.5,395C 832.392,398.633 835.392,402.133 838.5,405.5C 840.544,404.761 842.711,403.427 845,401.5C 846.216,403.962 846.882,406.629 847,409.5C 847.414,409.043 847.914,408.709 848.5,408.5C 850.168,410.015 851.501,411.682 852.5,413.5 Z"/></g>
<g><path style="opacity:1" fill="#fb347a" d="M 854.5,421.5 C 870.409,501.2 851.909,571.866 799,633.5C 781.796,652.645 762.63,669.312 741.5,683.5C 740.614,684.325 740.281,685.325 740.5,686.5C 735.558,683.283 733.225,678.617 733.5,672.5C 734.572,669.796 735.572,667.13 736.5,664.5C 737.5,664.5 738.5,664.5 739.5,664.5C 739.848,658.989 737.348,657.989 732,661.5C 731.667,661.167 731.333,660.833 731,660.5C 727.919,663.913 724.419,664.413 720.5,662C 718.855,660.2 717.522,658.2 716.5,656C 713.011,655.072 710.011,653.406 707.5,651C 709.116,647.769 710.45,644.436 711.5,641C 715.083,639.048 718.583,639.214 722,641.5C 727.037,639.105 728.37,635.439 726,630.5C 722.667,627.167 719.333,623.833 716,620.5C 716.238,616.322 717.405,612.322 719.5,608.5C 723.796,607.672 728.129,607.172 732.5,607C 733.573,605.687 734.24,604.187 734.5,602.5C 733.667,599.167 732.833,595.833 732,592.5C 729.629,590.362 727.796,587.862 726.5,585C 728.394,583.899 729.061,582.566 728.5,581C 730.044,580.71 731.377,580.044 732.5,579C 728.514,578.501 724.514,578.334 720.5,578.5C 720.5,579.5 720.5,580.5 720.5,581.5C 717.171,581.736 714.171,580.903 711.5,579C 699.787,578.813 688.121,578.313 676.5,577.5C 673.17,578.094 669.836,578.76 666.5,579.5C 664.347,584.259 660.68,585.759 655.5,584C 653.679,581.863 651.346,581.03 648.5,581.5C 647.524,586.789 648.19,591.956 650.5,597C 652.881,598.923 654.381,601.423 655,604.5C 657.04,606.353 659.373,607.686 662,608.5C 664.577,623.575 668.744,624.242 674.5,610.5C 677.174,606.66 680.341,603.327 684,600.5C 684.333,598.833 684.667,597.167 685,595.5C 687.412,593.429 689.412,591.096 691,588.5C 694.749,591.27 698.749,593.603 703,595.5C 703.774,599.147 704.441,602.814 705,606.5C 707.507,608.189 709.007,610.522 709.5,613.5C 708.91,614.799 707.91,615.632 706.5,616C 699.437,616.16 692.437,616.827 685.5,618C 685.167,618.333 684.833,618.667 684.5,619C 685.916,621.627 686.583,624.46 686.5,627.5C 686.299,630.988 685.632,634.321 684.5,637.5C 682.325,637.682 680.325,638.349 678.5,639.5C 675.27,638.192 671.936,637.192 668.5,636.5C 664.745,638.904 660.745,640.904 656.5,642.5C 650.881,641.041 648.047,637.375 648,631.5C 647.667,631.833 647.333,632.167 647,632.5C 643.586,631.606 640.086,630.939 636.5,630.5C 633.341,631.885 630.008,632.885 626.5,633.5C 624.246,633.069 622.079,632.403 620,631.5C 617.333,632.167 614.667,632.833 612,633.5C 608.288,632.134 604.788,630.301 601.5,628C 600.107,626.829 599.273,625.329 599,623.5C 595.146,620.747 592.479,621.747 591,626.5C 589.891,632.479 590.724,638.146 593.5,643.5C 593.392,644.442 593.059,645.275 592.5,646C 584.707,647.158 577.04,648.825 569.5,651C 567.702,653.996 566.202,657.163 565,660.5C 564,659.167 563,659.167 562,660.5C 561.167,659 560,657.833 558.5,657C 551.669,657.945 548.002,655.112 547.5,648.5C 545.61,648.703 544.11,648.037 543,646.5C 537.866,647.602 532.7,647.435 527.5,646C 526.195,641.95 523.862,640.95 520.5,643C 522.513,643.875 522.513,645.209 520.5,647C 522.298,648.505 524.132,648.672 526,647.5C 527.283,655.601 524.283,661.601 517,665.5C 507.277,662.303 497.944,658.303 489,653.5C 487.667,654.167 486.667,655.167 486,656.5C 485.598,655.128 485.098,653.795 484.5,652.5C 485.752,650.999 486.752,649.332 487.5,647.5C 486.737,646.281 485.737,645.281 484.5,644.5C 485.246,643.264 485.579,641.93 485.5,640.5C 488.392,640.279 491.059,639.446 493.5,638C 491.782,637.654 490.115,637.154 488.5,636.5C 487.167,639.167 485.833,639.167 484.5,636.5C 479.459,639.529 474.125,639.696 468.5,637C 466.336,636.086 464.336,634.919 462.5,633.5C 459.025,629.896 456.025,625.896 453.5,621.5C 455.138,620.295 455.471,618.962 454.5,617.5C 457.02,614.127 456.687,610.961 453.5,608C 454.056,607.617 454.389,607.117 454.5,606.5C 471.633,618.238 488.966,629.738 506.5,641C 508.65,642.59 510.983,643.257 513.5,643C 552.509,619.656 588.842,592.656 622.5,562C 648.007,538.689 668.674,511.855 684.5,481.5C 685.825,482.953 686.658,482.619 687,480.5C 687.333,482.833 687.667,485.167 688,487.5C 688.667,485.5 689.333,483.5 690,481.5C 690.49,482.793 690.657,484.127 690.5,485.5C 691.822,485.33 692.989,485.663 694,486.5C 696.134,484.422 695.968,482.588 693.5,481C 694.167,480.667 694.833,480.333 695.5,480C 694.019,479.02 692.685,477.853 691.5,476.5C 692.891,476.891 693.891,476.058 694.5,474C 694.167,473.667 693.833,473.333 693.5,473C 694.191,471.933 694.691,470.766 695,469.5C 695.869,474.508 696.536,474.175 697,468.5C 699.071,465.584 700.405,465.918 701,469.5C 701.333,468.833 701.667,468.167 702,467.5C 703.584,468.861 705.418,469.528 707.5,469.5C 707.318,467.409 707.652,465.409 708.5,463.5C 706.668,458.533 704.668,453.7 702.5,449C 704.751,446.277 706.251,443.111 707,439.5C 709.94,436.033 713.44,433.366 717.5,431.5C 718.208,428.634 718.875,425.8 719.5,423C 718.289,422.107 718.289,421.274 719.5,420.5C 720.333,421.5 721.167,422.5 722,423.5C 722.492,422.451 722.326,421.451 721.5,420.5C 722.376,419.749 723.376,419.249 724.5,419C 724.167,418.667 723.833,418.333 723.5,418C 725.044,415.001 726.211,411.834 727,408.5C 727.689,407.643 728.522,406.977 729.5,406.5C 735.815,407.255 742.148,407.921 748.5,408.5C 749.764,410.935 751.597,412.935 754,414.5C 754.414,414.043 754.914,413.709 755.5,413.5C 757.234,415.234 759.234,416.568 761.5,417.5C 760.359,418.425 760.359,419.259 761.5,420C 758.86,422.951 755.693,423.785 752,422.5C 752.208,418.331 750.708,417.164 747.5,419C 746.235,424.26 743.401,428.427 739,431.5C 738.667,432.833 738.333,434.167 738,435.5C 735.31,435.767 732.81,437.101 730.5,439.5C 730.686,442.115 732.02,444.448 734.5,446.5C 735.167,445.833 735.833,445.167 736.5,444.5C 738.878,448.882 742.545,451.215 747.5,451.5C 747.66,449.801 747.494,448.134 747,446.5C 745.527,446.868 744.027,446.368 742.5,445C 744.264,443.331 746.264,442.164 748.5,441.5C 749.826,442.99 751.326,444.324 753,445.5C 754.734,444.751 756.567,444.251 758.5,444C 760.183,440.38 760.85,436.546 760.5,432.5C 763.85,432.335 767.183,432.502 770.5,433C 769.542,434.147 769.875,435.147 771.5,436C 769.662,437.325 768.662,439.159 768.5,441.5C 768.59,443.425 769.59,444.592 771.5,445C 770.833,445.333 770.167,445.667 769.5,446C 772.036,447.747 774.536,449.58 777,451.5C 781.954,448.501 786.454,445.335 790.5,442C 791.044,439.6 791.711,437.267 792.5,435C 792.254,431.651 792.254,428.151 792.5,424.5C 793.552,424.649 794.552,424.483 795.5,424C 799.518,421.166 799.518,417.5 795.5,413C 795.667,412.5 795.833,412 796,411.5C 799.825,407.877 803.658,404.21 807.5,400.5C 811.968,399.518 816.135,397.851 820,395.5C 822.634,395.934 825.134,396.767 827.5,398C 826.549,398.718 826.383,399.551 827,400.5C 829.037,402.436 831.203,404.102 833.5,405.5C 833.324,407.672 833.157,410.005 833,412.5C 832.378,414.731 831.211,416.565 829.5,418C 830.711,419.113 830.711,420.28 829.5,421.5C 827.563,422.158 825.73,422.491 824,422.5C 823.667,421.833 823.333,421.167 823,420.5C 821.509,422.004 819.676,422.837 817.5,423C 815.627,428.775 811.627,431.275 805.5,430.5C 805.66,432.199 805.494,433.866 805,435.5C 799.503,440.473 796.836,446.473 797,453.5C 793.408,458.159 789.908,462.826 786.5,467.5C 787.711,468.72 787.711,469.887 786.5,471C 791.217,472.609 795.884,473.109 800.5,472.5C 800.338,470.473 800.505,468.473 801,466.5C 802.205,467.071 803.372,467.738 804.5,468.5C 804.533,469.989 805.033,471.322 806,472.5C 808.901,472.169 811.901,471.169 815,469.5C 815.093,466.993 815.926,464.826 817.5,463C 814.246,461.419 811.246,459.419 808.5,457C 810.608,456.64 812.608,455.973 814.5,455C 813.061,454.009 812.061,452.676 811.5,451C 817.511,444.989 823.511,438.989 829.5,433C 831.519,432.55 833.352,431.717 835,430.5C 835.333,430.833 835.667,431.167 836,431.5C 839.192,427.935 843.025,426.935 847.5,428.5C 847.343,427.127 847.51,425.793 848,424.5C 848.667,425.833 849.333,425.833 850,424.5C 851.062,427.029 851.895,429.696 852.5,432.5C 852.833,432.333 853.167,432.167 853.5,432C 852.258,428.302 852.592,424.802 854.5,421.5 Z"/></g>
<g><path style="opacity:1" fill="#fb347a" d="M 438.5,594.5 C 443.052,597.603 447.386,600.936 451.5,604.5C 449.33,605.768 447.163,605.768 445,604.5C 440.946,606.441 438.446,609.607 437.5,614C 432.889,617.631 428.055,620.798 423,623.5C 422.358,625.762 421.525,627.929 420.5,630C 417.012,630.511 413.345,630.511 409.5,630C 405.177,632.655 401.011,635.488 397,638.5C 395.27,642.542 395.603,646.542 398,650.5C 401,654.5 404,654.5 407,650.5C 409.685,647.292 411.518,643.626 412.5,639.5C 413.748,638.96 414.915,638.293 416,637.5C 419.003,638.09 422.003,638.423 425,638.5C 429.813,636.388 434.479,634.721 439,633.5C 440.612,639.409 444.112,643.742 449.5,646.5C 453.658,646.592 455.991,644.592 456.5,640.5C 460.959,637.205 463.626,638.205 464.5,643.5C 463.845,649.82 463.345,656.153 463,662.5C 461.73,666.362 459.73,669.696 457,672.5C 455.215,671.76 453.382,671.093 451.5,670.5C 450.73,672.272 449.397,673.272 447.5,673.5C 442.61,669.563 437.11,668.563 431,670.5C 426.71,669.285 422.543,668.119 418.5,667C 416.765,669.192 415.598,671.692 415,674.5C 414.111,673.112 413.611,673.278 413.5,675C 414.742,679.164 414.742,683.331 413.5,687.5C 410.167,688.833 407.833,691.167 406.5,694.5C 405.675,695.386 404.675,695.719 403.5,695.5C 403.022,698.278 404.022,700.278 406.5,701.5C 408.969,704.713 409.136,708.047 407,711.5C 402.713,713.623 399.213,716.623 396.5,720.5C 395.302,724.495 393.302,727.995 390.5,731C 401.022,733.026 411.689,734.026 422.5,734C 420.5,734.333 418.5,734.667 416.5,735C 420.167,735.333 423.833,735.667 427.5,736C 426.763,738.179 425.096,740.012 422.5,741.5C 348.12,727.732 284.286,694.399 231,641.5C 211.624,621.1 195.958,598.1 184,572.5C 180.996,565.655 178.496,558.655 176.5,551.5C 178.626,551.85 180.959,551.85 183.5,551.5C 183.343,552.873 183.51,554.207 184,555.5C 185,552.5 186,549.5 187,546.5C 188,545.833 189,545.167 190,544.5C 190.413,541.768 191.08,539.101 192,536.5C 193.692,536.324 195.192,535.824 196.5,535C 196.167,534.667 195.833,534.333 195.5,534C 196.33,531.198 197.163,528.365 198,525.5C 202.382,524.727 205.882,522.561 208.5,519C 207.663,517.989 207.33,516.822 207.5,515.5C 205.54,514.862 203.707,514.862 202,515.5C 201.031,513.266 199.698,511.266 198,509.5C 194.565,510.97 193.065,509.304 193.5,504.5C 194.822,504.67 195.989,504.337 197,503.5C 197.175,500.843 197.008,498.176 196.5,495.5C 193.167,496.167 191.167,494.833 190.5,491.5C 192.11,488.042 194.443,487.542 197.5,490C 202.458,494.601 207.292,499.435 212,504.5C 214.473,503.88 216.973,503.214 219.5,502.5C 219.291,501.914 218.957,501.414 218.5,501C 220.11,499.505 221.776,499.339 223.5,500.5C 223.61,498.902 223.943,497.235 224.5,495.5C 222.169,493.383 221.003,490.716 221,487.5C 219.243,486.881 218.076,485.714 217.5,484C 219.942,483.035 222.275,481.535 224.5,479.5C 223.541,474.551 223.708,469.885 225,465.5C 226.147,466.458 227.147,466.125 228,464.5C 229.681,466.548 231.181,468.715 232.5,471C 235.521,471.673 238.521,472.007 241.5,472C 239.807,469.066 238.807,465.899 238.5,462.5C 235.713,462.22 233.547,460.887 232,458.5C 230.649,460.019 229.149,461.352 227.5,462.5C 226.205,461.902 224.872,461.402 223.5,461C 224.993,459.632 226.493,459.465 228,460.5C 229.315,458.684 230.815,457.017 232.5,455.5C 231.339,452.381 230.006,449.881 228.5,448C 224.591,447.379 221.257,445.712 218.5,443C 218.027,439.358 217.861,435.525 218,431.5C 218.112,428.553 219.612,427.22 222.5,427.5C 222.286,429.144 222.62,430.644 223.5,432C 224.935,431.689 226.268,431.855 227.5,432.5C 228.694,428.9 228.694,425.4 227.5,422C 228.607,420.161 230.774,418.995 234,418.5C 236.881,419.043 238.881,420.709 240,423.5C 240.333,423.167 240.667,422.833 241,422.5C 244.28,423.246 247.614,423.913 251,424.5C 253.796,426.091 254.129,428.091 252,430.5C 251.667,430.167 251.333,429.833 251,429.5C 247.869,430.206 244.702,430.873 241.5,431.5C 237.904,430.921 234.237,430.921 230.5,431.5C 230.739,433.467 230.406,435.301 229.5,437C 232.21,438.747 235.21,439.747 238.5,440C 239.167,442 239.833,444 240.5,446C 240.167,446.333 239.833,446.667 239.5,447C 244.351,450.594 249.017,454.428 253.5,458.5C 250.67,460.762 248.003,463.262 245.5,466C 246.066,468.361 245.066,470.194 242.5,471.5C 246.4,471.509 250.234,472.509 254,474.5C 254.402,478.898 255.568,483.231 257.5,487.5C 260.941,487.699 264.274,487.199 267.5,486C 267.167,485.667 266.833,485.333 266.5,485C 269.877,484.548 273.211,483.882 276.5,483C 279.542,480.125 283.209,478.792 287.5,479C 286.793,476.48 285.96,473.98 285,471.5C 280.414,468.474 280.58,465.641 285.5,463C 283.668,462.252 282.001,461.252 280.5,460C 281.815,458.605 281.481,457.605 279.5,457C 282.095,456.774 284.595,456.274 287,455.5C 289.823,456.367 292.823,456.701 296,456.5C 295.621,454.925 295.788,453.425 296.5,452C 300.465,450.583 302.799,451.916 303.5,456C 307.904,457.777 311.404,460.61 314,464.5C 316.103,467.181 315.936,469.681 313.5,472C 314.114,473.13 314.114,474.463 313.5,476C 313.872,478.709 315.372,480.543 318,481.5C 319.388,480.446 320.888,480.28 322.5,481C 323.376,482.585 324.709,483.585 326.5,484C 327.575,486.622 328.575,488.789 329.5,490.5C 332.003,490.188 334.169,488.855 336,486.5C 337.741,489.43 338.908,492.264 339.5,495C 338.5,496.667 337.167,498 335.5,499C 336.573,500.25 336.573,501.584 335.5,503C 336.509,504.168 337.509,505.335 338.5,506.5C 337.624,507.251 336.624,507.751 335.5,508C 337.875,510.822 340.541,512.488 343.5,513C 343.043,513.414 342.709,513.914 342.5,514.5C 345.114,518.451 348.114,522.117 351.5,525.5C 351.167,526.167 350.833,526.833 350.5,527.5C 353.498,529.709 356.331,529.709 359,527.5C 360.583,529.202 360.083,530.536 357.5,531.5C 358.5,532.333 359.5,533.167 360.5,534C 360.167,534.333 359.833,534.667 359.5,535C 362.706,535.296 365.872,535.796 369,536.5C 370.664,539.478 372.664,541.478 375,542.5C 375.333,541.5 375.667,540.5 376,539.5C 377.353,540.685 378.52,542.019 379.5,543.5C 378.515,545.098 378.349,546.765 379,548.5C 382.728,551.14 385.895,554.306 388.5,558C 390.271,560.113 391.771,559.947 393,557.5C 395.826,558.917 395.993,560.417 393.5,562C 397.167,565.667 400.833,569.333 404.5,573C 406.271,575.113 407.771,574.947 409,572.5C 411.543,573.876 411.709,575.043 409.5,576C 415.568,581.861 422.235,587.861 429.5,594C 431.789,595.248 434.123,596.415 436.5,597.5C 436.016,596.219 436.683,595.219 438.5,594.5 Z"/></g>
<g><path style="opacity:1" fill="#fb3077" d="M 740.5,686.5 C 744.363,698.091 748.03,709.757 751.5,721.5C 750.778,721.918 750.278,722.584 750,723.5C 749.333,720.833 748.667,720.833 748,723.5C 746.398,721.693 745.064,719.693 744,717.5C 743.626,718.416 743.126,719.25 742.5,720C 740.098,720.814 737.765,720.647 735.5,719.5C 734.029,715.253 732.862,710.919 732,706.5C 730.59,705.213 729.09,704.046 727.5,703C 727.833,702.667 728.167,702.333 728.5,702C 727.773,700.601 727.273,699.101 727,697.5C 720.605,696.436 718.272,692.769 720,686.5C 724.573,680.707 726.74,674.041 726.5,666.5C 720.239,664.149 713.905,663.649 707.5,665C 706.707,666.085 706.04,667.252 705.5,668.5C 708.49,672.289 709.49,676.455 708.5,681C 707.175,680.852 706.008,681.018 705,681.5C 704.167,676 701,672.833 695.5,672C 694.142,669.974 693.309,667.807 693,665.5C 690.357,664.024 688.19,662.024 686.5,659.5C 686.931,658.707 687.265,657.873 687.5,657C 686.373,655.943 685.873,654.777 686,653.5C 688.672,654.759 690.839,654.092 692.5,651.5C 690.596,650.591 688.762,649.591 687,648.5C 684.07,649.357 681.237,649.024 678.5,647.5C 676.958,648.747 675.458,648.747 674,647.5C 671.516,648.699 671.35,650.532 673.5,653C 673.167,653.333 672.833,653.667 672.5,654C 674.81,654.497 677.143,654.663 679.5,654.5C 679.343,653.127 679.51,651.793 680,650.5C 681.562,651.931 683.062,653.431 684.5,655C 683.747,656.487 682.914,656.654 682,655.5C 679.527,656.12 677.027,656.786 674.5,657.5C 676.542,658.503 676.875,659.837 675.5,661.5C 678.028,662.517 678.028,663.684 675.5,665C 676.116,667.179 677.283,669.012 679,670.5C 679.667,673.167 679.667,675.833 679,678.5C 675.441,679.887 672.608,682.22 670.5,685.5C 666.563,685.326 663.063,683.659 660,680.5C 655.627,683.118 651.294,683.451 647,681.5C 645.887,682.711 644.72,682.711 643.5,681.5C 642.328,681.919 641.328,682.585 640.5,683.5C 641.852,684.896 643.519,685.563 645.5,685.5C 648.213,684.478 650.88,684.478 653.5,685.5C 654.833,688.167 656.167,690.833 657.5,693.5C 655.637,695.864 653.971,698.364 652.5,701C 654.691,704.23 655.024,707.73 653.5,711.5C 650.397,711.923 647.564,712.923 645,714.5C 644.667,714.167 644.333,713.833 644,713.5C 643.8,716.734 642.967,719.734 641.5,722.5C 642.494,724.83 643.494,727.163 644.5,729.5C 644.291,730.994 643.624,732.161 642.5,733C 647.042,736.325 651.709,739.658 656.5,743C 655.253,744.458 655.253,745.958 656.5,747.5C 660.525,749.299 663.692,748.299 666,744.5C 671.947,744.921 676.947,747.255 681,751.5C 682.892,750.87 684.559,749.87 686,748.5C 686.05,744.972 685.884,741.639 685.5,738.5C 686.903,734.746 689.57,733.579 693.5,735C 695.554,738.498 697.221,742.165 698.5,746C 695.727,747.888 695.394,749.888 697.5,752C 696.736,754.069 696.236,756.236 696,758.5C 694.559,759.26 693.059,759.926 691.5,760.5C 688.228,759.214 685.062,758.548 682,758.5C 675.932,759.913 670.265,762.246 665,765.5C 663.581,764.079 661.914,763.079 660,762.5C 657.946,763.189 656.946,764.189 657,765.5C 652.464,763.491 648.964,764.491 646.5,768.5C 630.025,760.096 613.692,751.429 597.5,742.5C 567.591,748.023 537.424,750.356 507,749.5C 478.39,750.022 450.223,747.355 422.5,741.5C 425.096,740.012 426.763,738.179 427.5,736C 423.833,735.667 420.167,735.333 416.5,735C 418.5,734.667 420.5,734.333 422.5,734C 411.689,734.026 401.022,733.026 390.5,731C 393.302,727.995 395.302,724.495 396.5,720.5C 399.213,716.623 402.713,713.623 407,711.5C 409.136,708.047 408.969,704.713 406.5,701.5C 404.022,700.278 403.022,698.278 403.5,695.5C 404.675,695.719 405.675,695.386 406.5,694.5C 407.833,691.167 410.167,688.833 413.5,687.5C 414.742,683.331 414.742,679.164 413.5,675C 413.611,673.278 414.111,673.112 415,674.5C 415.598,671.692 416.765,669.192 418.5,667C 422.543,668.119 426.71,669.285 431,670.5C 437.11,668.563 442.61,669.563 447.5,673.5C 449.397,673.272 450.73,672.272 451.5,670.5C 453.382,671.093 455.215,671.76 457,672.5C 459.73,669.696 461.73,666.362 463,662.5C 463.345,656.153 463.845,649.82 464.5,643.5C 463.626,638.205 460.959,637.205 456.5,640.5C 455.991,644.592 453.658,646.592 449.5,646.5C 444.112,643.742 440.612,639.409 439,633.5C 434.479,634.721 429.813,636.388 425,638.5C 422.003,638.423 419.003,638.09 416,637.5C 414.915,638.293 413.748,638.96 412.5,639.5C 411.518,643.626 409.685,647.292 407,650.5C 404,654.5 401,654.5 398,650.5C 395.603,646.542 395.27,642.542 397,638.5C 401.011,635.488 405.177,632.655 409.5,630C 413.345,630.511 417.012,630.511 420.5,630C 421.525,627.929 422.358,625.762 423,623.5C 428.055,620.798 432.889,617.631 437.5,614C 438.446,609.607 440.946,606.441 445,604.5C 447.163,605.768 449.33,605.768 451.5,604.5C 452.71,604.932 453.71,605.599 454.5,606.5C 454.389,607.117 454.056,607.617 453.5,608C 456.687,610.961 457.02,614.127 454.5,617.5C 455.471,618.962 455.138,620.295 453.5,621.5C 456.025,625.896 459.025,629.896 462.5,633.5C 464.336,634.919 466.336,636.086 468.5,637C 474.125,639.696 479.459,639.529 484.5,636.5C 485.833,639.167 487.167,639.167 488.5,636.5C 490.115,637.154 491.782,637.654 493.5,638C 491.059,639.446 488.392,640.279 485.5,640.5C 485.579,641.93 485.246,643.264 484.5,644.5C 485.737,645.281 486.737,646.281 487.5,647.5C 486.752,649.332 485.752,650.999 484.5,652.5C 485.098,653.795 485.598,655.128 486,656.5C 486.667,655.167 487.667,654.167 489,653.5C 497.944,658.303 507.277,662.303 517,665.5C 524.283,661.601 527.283,655.601 526,647.5C 524.132,648.672 522.298,648.505 520.5,647C 522.513,645.209 522.513,643.875 520.5,643C 523.862,640.95 526.195,641.95 527.5,646C 532.7,647.435 537.866,647.602 543,646.5C 544.11,648.037 545.61,648.703 547.5,648.5C 548.002,655.112 551.669,657.945 558.5,657C 560,657.833 561.167,659 562,660.5C 563,659.167 564,659.167 565,660.5C 566.202,657.163 567.702,653.996 569.5,651C 577.04,648.825 584.707,647.158 592.5,646C 593.059,645.275 593.392,644.442 593.5,643.5C 590.724,638.146 589.891,632.479 591,626.5C 592.479,621.747 595.146,620.747 599,623.5C 599.273,625.329 600.107,626.829 601.5,628C 604.788,630.301 608.288,632.134 612,633.5C 614.667,632.833 617.333,632.167 620,631.5C 622.079,632.403 624.246,633.069 626.5,633.5C 630.008,632.885 633.341,631.885 636.5,630.5C 640.086,630.939 643.586,631.606 647,632.5C 647.333,632.167 647.667,631.833 648,631.5C 648.047,637.375 650.881,641.041 656.5,642.5C 660.745,640.904 664.745,638.904 668.5,636.5C 671.936,637.192 675.27,638.192 678.5,639.5C 680.325,638.349 682.325,637.682 684.5,637.5C 685.632,634.321 686.299,630.988 686.5,627.5C 686.583,624.46 685.916,621.627 684.5,619C 684.833,618.667 685.167,618.333 685.5,618C 692.437,616.827 699.437,616.16 706.5,616C 707.91,615.632 708.91,614.799 709.5,613.5C 709.007,610.522 707.507,608.189 705,606.5C 704.441,602.814 703.774,599.147 703,595.5C 698.749,593.603 694.749,591.27 691,588.5C 689.412,591.096 687.412,593.429 685,595.5C 684.667,597.167 684.333,598.833 684,600.5C 680.341,603.327 677.174,606.66 674.5,610.5C 668.744,624.242 664.577,623.575 662,608.5C 659.373,607.686 657.04,606.353 655,604.5C 654.381,601.423 652.881,598.923 650.5,597C 648.19,591.956 647.524,586.789 648.5,581.5C 651.346,581.03 653.679,581.863 655.5,584C 660.68,585.759 664.347,584.259 666.5,579.5C 669.836,578.76 673.17,578.094 676.5,577.5C 688.121,578.313 699.787,578.813 711.5,579C 714.171,580.903 717.171,581.736 720.5,581.5C 720.5,580.5 720.5,579.5 720.5,578.5C 724.514,578.334 728.514,578.501 732.5,579C 731.377,580.044 730.044,580.71 728.5,581C 729.061,582.566 728.394,583.899 726.5,585C 727.796,587.862 729.629,590.362 732,592.5C 732.833,595.833 733.667,599.167 734.5,602.5C 734.24,604.187 733.573,605.687 732.5,607C 728.129,607.172 723.796,607.672 719.5,608.5C 717.405,612.322 716.238,616.322 716,620.5C 719.333,623.833 722.667,627.167 726,630.5C 728.37,635.439 727.037,639.105 722,641.5C 718.583,639.214 715.083,639.048 711.5,641C 710.45,644.436 709.116,647.769 707.5,651C 710.011,653.406 713.011,655.072 716.5,656C 717.522,658.2 718.855,660.2 720.5,662C 724.419,664.413 727.919,663.913 731,660.5C 731.333,660.833 731.667,661.167 732,661.5C 737.348,657.989 739.848,658.989 739.5,664.5C 738.5,664.5 737.5,664.5 736.5,664.5C 735.572,667.13 734.572,669.796 733.5,672.5C 733.225,678.617 735.558,683.283 740.5,686.5 Z"/></g>
<g><path style="opacity:1" fill="#fc2f76" d="M 751.5,721.5 C 758.677,741.185 766.177,760.851 774,780.5C 775.89,799.39 767.39,809.723 748.5,811.5C 742.272,810.924 736.272,809.424 730.5,807C 701.812,795.487 673.812,782.653 646.5,768.5C 648.964,764.491 652.464,763.491 657,765.5C 656.946,764.189 657.946,763.189 660,762.5C 661.914,763.079 663.581,764.079 665,765.5C 670.265,762.246 675.932,759.913 682,758.5C 685.062,758.548 688.228,759.214 691.5,760.5C 693.059,759.926 694.559,759.26 696,758.5C 696.236,756.236 696.736,754.069 697.5,752C 695.394,749.888 695.727,747.888 698.5,746C 697.221,742.165 695.554,738.498 693.5,735C 689.57,733.579 686.903,734.746 685.5,738.5C 685.884,741.639 686.05,744.972 686,748.5C 684.559,749.87 682.892,750.87 681,751.5C 676.947,747.255 671.947,744.921 666,744.5C 663.692,748.299 660.525,749.299 656.5,747.5C 655.253,745.958 655.253,744.458 656.5,743C 651.709,739.658 647.042,736.325 642.5,733C 643.624,732.161 644.291,730.994 644.5,729.5C 643.494,727.163 642.494,724.83 641.5,722.5C 642.967,719.734 643.8,716.734 644,713.5C 644.333,713.833 644.667,714.167 645,714.5C 647.564,712.923 650.397,711.923 653.5,711.5C 655.024,707.73 654.691,704.23 652.5,701C 653.971,698.364 655.637,695.864 657.5,693.5C 656.167,690.833 654.833,688.167 653.5,685.5C 650.88,684.478 648.213,684.478 645.5,685.5C 643.519,685.563 641.852,684.896 640.5,683.5C 641.328,682.585 642.328,681.919 643.5,681.5C 644.72,682.711 645.887,682.711 647,681.5C 651.294,683.451 655.627,683.118 660,680.5C 663.063,683.659 666.563,685.326 670.5,685.5C 672.608,682.22 675.441,679.887 679,678.5C 679.667,675.833 679.667,673.167 679,670.5C 677.283,669.012 676.116,667.179 675.5,665C 678.028,663.684 678.028,662.517 675.5,661.5C 676.875,659.837 676.542,658.503 674.5,657.5C 677.027,656.786 679.527,656.12 682,655.5C 682.914,656.654 683.747,656.487 684.5,655C 683.062,653.431 681.562,651.931 680,650.5C 679.51,651.793 679.343,653.127 679.5,654.5C 677.143,654.663 674.81,654.497 672.5,654C 672.833,653.667 673.167,653.333 673.5,653C 671.35,650.532 671.516,648.699 674,647.5C 675.458,648.747 676.958,648.747 678.5,647.5C 681.237,649.024 684.07,649.357 687,648.5C 688.762,649.591 690.596,650.591 692.5,651.5C 690.839,654.092 688.672,654.759 686,653.5C 685.873,654.777 686.373,655.943 687.5,657C 687.265,657.873 686.931,658.707 686.5,659.5C 688.19,662.024 690.357,664.024 693,665.5C 693.309,667.807 694.142,669.974 695.5,672C 701,672.833 704.167,676 705,681.5C 706.008,681.018 707.175,680.852 708.5,681C 709.49,676.455 708.49,672.289 705.5,668.5C 706.04,667.252 706.707,666.085 707.5,665C 713.905,663.649 720.239,664.149 726.5,666.5C 726.74,674.041 724.573,680.707 720,686.5C 718.272,692.769 720.605,696.436 727,697.5C 727.273,699.101 727.773,700.601 728.5,702C 728.167,702.333 727.833,702.667 727.5,703C 729.09,704.046 730.59,705.213 732,706.5C 732.862,710.919 734.029,715.253 735.5,719.5C 737.765,720.647 740.098,720.814 742.5,720C 743.126,719.25 743.626,718.416 744,717.5C 745.064,719.693 746.398,721.693 748,723.5C 748.667,720.833 749.333,720.833 750,723.5C 750.278,722.584 750.778,721.918 751.5,721.5 Z"/></g>
</svg>
